<mxfile host="app.diagrams.net" modified="2024-05-21T13:43:58.137Z" agent="Mozilla/5.0 (Windows NT 10.0; Win64; x64) AppleWebKit/537.36 (KHTML, like Gecko) Chrome/124.0.0.0 Safari/537.36" etag="Szv-Sw4yBTwU290VV0Mb" version="23.1.5" type="github">
  <diagram name="Страница — 1" id="pnNomIvdTcrVvQcoWYx4">
    <mxGraphModel dx="1138" dy="623" grid="0" gridSize="10" guides="1" tooltips="1" connect="1" arrows="1" fold="1" page="0" pageScale="1" pageWidth="827" pageHeight="1169" math="0" shadow="0">
      <root>
        <mxCell id="0" />
        <mxCell id="1" parent="0" />
        <mxCell id="0X2S5pAUkGWCGNfLX1CJ-8" value="" style="shape=folder;fontStyle=1;spacingTop=10;tabWidth=180;tabHeight=45;tabPosition=left;html=1;whiteSpace=wrap;" vertex="1" parent="1">
          <mxGeometry x="270" y="105" width="540" height="605" as="geometry" />
        </mxCell>
        <mxCell id="0X2S5pAUkGWCGNfLX1CJ-12" style="rounded=0;orthogonalLoop=1;jettySize=auto;html=1;entryX=0;entryY=0.5;entryDx=0;entryDy=0;endArrow=open;endFill=0;" edge="1" parent="1" source="0X2S5pAUkGWCGNfLX1CJ-1" target="0X2S5pAUkGWCGNfLX1CJ-10">
          <mxGeometry relative="1" as="geometry" />
        </mxCell>
        <mxCell id="0X2S5pAUkGWCGNfLX1CJ-1" value="Клиент" style="shape=umlActor;verticalLabelPosition=bottom;verticalAlign=top;html=1;outlineConnect=0;" vertex="1" parent="1">
          <mxGeometry x="204" y="220" width="30" height="60" as="geometry" />
        </mxCell>
        <mxCell id="0X2S5pAUkGWCGNfLX1CJ-3" value="Преподаватель" style="shape=umlActor;verticalLabelPosition=bottom;verticalAlign=top;html=1;outlineConnect=0;" vertex="1" parent="1">
          <mxGeometry x="204" y="500" width="30" height="60" as="geometry" />
        </mxCell>
        <mxCell id="0X2S5pAUkGWCGNfLX1CJ-4" value="Методист" style="shape=umlActor;verticalLabelPosition=bottom;verticalAlign=top;html=1;outlineConnect=0;" vertex="1" parent="1">
          <mxGeometry x="850" y="220" width="30" height="60" as="geometry" />
        </mxCell>
        <mxCell id="0X2S5pAUkGWCGNfLX1CJ-6" value="Администратор" style="shape=umlActor;verticalLabelPosition=bottom;verticalAlign=top;html=1;outlineConnect=0;" vertex="1" parent="1">
          <mxGeometry x="850" y="500" width="30" height="60" as="geometry" />
        </mxCell>
        <mxCell id="0X2S5pAUkGWCGNfLX1CJ-9" value="Организация обучения в онлайн школе" style="text;html=1;align=center;verticalAlign=middle;whiteSpace=wrap;rounded=0;" vertex="1" parent="1">
          <mxGeometry x="270" y="105" width="180" height="45" as="geometry" />
        </mxCell>
        <mxCell id="0X2S5pAUkGWCGNfLX1CJ-10" value="Выбор курса" style="ellipse;whiteSpace=wrap;html=1;" vertex="1" parent="1">
          <mxGeometry x="320" y="170" width="97" height="60" as="geometry" />
        </mxCell>
        <mxCell id="0X2S5pAUkGWCGNfLX1CJ-13" value="Выбор преподавателя" style="ellipse;whiteSpace=wrap;html=1;" vertex="1" parent="1">
          <mxGeometry x="473" y="170" width="110" height="60" as="geometry" />
        </mxCell>
        <mxCell id="0X2S5pAUkGWCGNfLX1CJ-14" value="&amp;lt;&amp;lt;include&amp;gt;&amp;gt;" style="html=1;verticalAlign=bottom;endArrow=open;dashed=1;endSize=8;curved=0;rounded=0;exitX=0;exitY=0.5;exitDx=0;exitDy=0;endFill=0;" edge="1" parent="1" source="0X2S5pAUkGWCGNfLX1CJ-13" target="0X2S5pAUkGWCGNfLX1CJ-10">
          <mxGeometry x="-0.0481" y="-13" relative="1" as="geometry">
            <mxPoint x="540" y="330" as="sourcePoint" />
            <mxPoint x="460" y="330" as="targetPoint" />
            <mxPoint as="offset" />
          </mxGeometry>
        </mxCell>
        <mxCell id="0X2S5pAUkGWCGNfLX1CJ-15" value="Оплата курса" style="ellipse;whiteSpace=wrap;html=1;" vertex="1" parent="1">
          <mxGeometry x="473" y="250" width="97" height="60" as="geometry" />
        </mxCell>
        <mxCell id="0X2S5pAUkGWCGNfLX1CJ-16" value="&amp;lt;&amp;lt;include&amp;gt;&amp;gt;" style="html=1;verticalAlign=bottom;endArrow=open;dashed=1;endSize=8;curved=0;rounded=0;exitX=0;exitY=0.5;exitDx=0;exitDy=0;entryX=1;entryY=0.5;entryDx=0;entryDy=0;endFill=0;" edge="1" parent="1" source="0X2S5pAUkGWCGNfLX1CJ-15" target="0X2S5pAUkGWCGNfLX1CJ-17">
          <mxGeometry x="-0.1786" y="-10" relative="1" as="geometry">
            <mxPoint x="520" y="210" as="sourcePoint" />
            <mxPoint x="458" y="221" as="targetPoint" />
            <mxPoint as="offset" />
          </mxGeometry>
        </mxCell>
        <mxCell id="0X2S5pAUkGWCGNfLX1CJ-17" value="Подтверждение на обучение" style="ellipse;whiteSpace=wrap;html=1;" vertex="1" parent="1">
          <mxGeometry x="320" y="250" width="97" height="60" as="geometry" />
        </mxCell>
        <mxCell id="0X2S5pAUkGWCGNfLX1CJ-18" style="rounded=0;orthogonalLoop=1;jettySize=auto;html=1;entryX=0;entryY=0.5;entryDx=0;entryDy=0;endArrow=open;endFill=0;" edge="1" parent="1" source="0X2S5pAUkGWCGNfLX1CJ-1" target="0X2S5pAUkGWCGNfLX1CJ-17">
          <mxGeometry relative="1" as="geometry">
            <mxPoint x="240" y="250" as="sourcePoint" />
            <mxPoint x="363" y="230" as="targetPoint" />
          </mxGeometry>
        </mxCell>
        <mxCell id="0X2S5pAUkGWCGNfLX1CJ-19" value="Обучение клиента" style="ellipse;whiteSpace=wrap;html=1;" vertex="1" parent="1">
          <mxGeometry x="317" y="500" width="97" height="60" as="geometry" />
        </mxCell>
        <mxCell id="0X2S5pAUkGWCGNfLX1CJ-21" style="rounded=0;orthogonalLoop=1;jettySize=auto;html=1;entryX=0;entryY=0.5;entryDx=0;entryDy=0;endArrow=open;endFill=0;" edge="1" parent="1" source="0X2S5pAUkGWCGNfLX1CJ-3" target="0X2S5pAUkGWCGNfLX1CJ-19">
          <mxGeometry relative="1" as="geometry">
            <mxPoint x="230" y="530" as="sourcePoint" />
            <mxPoint x="340" y="300" as="targetPoint" />
          </mxGeometry>
        </mxCell>
        <mxCell id="0X2S5pAUkGWCGNfLX1CJ-22" value="Получение оплаты за проведение &lt;br&gt;курса" style="ellipse;whiteSpace=wrap;html=1;" vertex="1" parent="1">
          <mxGeometry x="450" y="450" width="120" height="80" as="geometry" />
        </mxCell>
        <mxCell id="0X2S5pAUkGWCGNfLX1CJ-23" value="&amp;lt;&amp;lt;include&amp;gt;&amp;gt;" style="html=1;verticalAlign=bottom;endArrow=open;dashed=1;endSize=8;curved=0;rounded=0;exitX=0;exitY=0.5;exitDx=0;exitDy=0;entryX=1;entryY=0;entryDx=0;entryDy=0;endFill=0;" edge="1" parent="1" source="0X2S5pAUkGWCGNfLX1CJ-22" target="0X2S5pAUkGWCGNfLX1CJ-19">
          <mxGeometry x="-0.0825" y="-20" relative="1" as="geometry">
            <mxPoint x="490" y="370" as="sourcePoint" />
            <mxPoint x="423" y="321" as="targetPoint" />
            <mxPoint as="offset" />
          </mxGeometry>
        </mxCell>
        <mxCell id="0X2S5pAUkGWCGNfLX1CJ-24" value="Дать домашнее задание" style="ellipse;whiteSpace=wrap;html=1;" vertex="1" parent="1">
          <mxGeometry x="461.5" y="580" width="97" height="60" as="geometry" />
        </mxCell>
        <mxCell id="0X2S5pAUkGWCGNfLX1CJ-25" value="Появление на занятии" style="ellipse;whiteSpace=wrap;html=1;" vertex="1" parent="1">
          <mxGeometry x="320" y="330" width="97" height="60" as="geometry" />
        </mxCell>
        <mxCell id="0X2S5pAUkGWCGNfLX1CJ-26" style="rounded=0;orthogonalLoop=1;jettySize=auto;html=1;entryX=0;entryY=0;entryDx=0;entryDy=0;endArrow=open;endFill=0;" edge="1" parent="1" source="0X2S5pAUkGWCGNfLX1CJ-1" target="0X2S5pAUkGWCGNfLX1CJ-25">
          <mxGeometry relative="1" as="geometry">
            <mxPoint x="244" y="264" as="sourcePoint" />
            <mxPoint x="330" y="290" as="targetPoint" />
          </mxGeometry>
        </mxCell>
        <mxCell id="0X2S5pAUkGWCGNfLX1CJ-27" value="&amp;lt;&amp;lt;extend&amp;gt;&amp;gt;" style="html=1;verticalAlign=bottom;endArrow=open;dashed=1;endSize=8;curved=0;rounded=0;exitX=1;exitY=0.5;exitDx=0;exitDy=0;endFill=0;entryX=0;entryY=0.5;entryDx=0;entryDy=0;" edge="1" parent="1" source="0X2S5pAUkGWCGNfLX1CJ-25" target="0X2S5pAUkGWCGNfLX1CJ-28">
          <mxGeometry x="-0.0257" y="16" relative="1" as="geometry">
            <mxPoint x="510" y="290" as="sourcePoint" />
            <mxPoint x="430" y="290" as="targetPoint" />
            <mxPoint as="offset" />
          </mxGeometry>
        </mxCell>
        <mxCell id="0X2S5pAUkGWCGNfLX1CJ-28" value="Выполнение домашнего ззадания" style="ellipse;whiteSpace=wrap;html=1;" vertex="1" parent="1">
          <mxGeometry x="473" y="350" width="97" height="60" as="geometry" />
        </mxCell>
        <mxCell id="0X2S5pAUkGWCGNfLX1CJ-30" value="&amp;lt;&amp;lt;extend&amp;gt;&amp;gt;" style="html=1;verticalAlign=bottom;endArrow=open;dashed=1;endSize=8;curved=0;rounded=0;exitX=1;exitY=1;exitDx=0;exitDy=0;endFill=0;entryX=0.058;entryY=0.282;entryDx=0;entryDy=0;entryPerimeter=0;" edge="1" parent="1" source="0X2S5pAUkGWCGNfLX1CJ-19" target="0X2S5pAUkGWCGNfLX1CJ-24">
          <mxGeometry x="0.2801" y="13" relative="1" as="geometry">
            <mxPoint x="427" y="370" as="sourcePoint" />
            <mxPoint x="504" y="400" as="targetPoint" />
            <mxPoint as="offset" />
          </mxGeometry>
        </mxCell>
        <mxCell id="0X2S5pAUkGWCGNfLX1CJ-31" value="Помощь клиенту в выборе курса" style="ellipse;whiteSpace=wrap;html=1;" vertex="1" parent="1">
          <mxGeometry x="660" y="450" width="100" height="70" as="geometry" />
        </mxCell>
        <mxCell id="0X2S5pAUkGWCGNfLX1CJ-32" style="rounded=0;orthogonalLoop=1;jettySize=auto;html=1;entryX=1;entryY=0.5;entryDx=0;entryDy=0;endArrow=open;endFill=0;" edge="1" parent="1" source="0X2S5pAUkGWCGNfLX1CJ-6" target="0X2S5pAUkGWCGNfLX1CJ-31">
          <mxGeometry relative="1" as="geometry">
            <mxPoint x="244" y="272" as="sourcePoint" />
            <mxPoint x="344" y="349" as="targetPoint" />
          </mxGeometry>
        </mxCell>
        <mxCell id="0X2S5pAUkGWCGNfLX1CJ-33" value="Выдача зарплаты преподавателям" style="ellipse;whiteSpace=wrap;html=1;" vertex="1" parent="1">
          <mxGeometry x="650" y="545" width="120" height="80" as="geometry" />
        </mxCell>
        <mxCell id="0X2S5pAUkGWCGNfLX1CJ-34" style="rounded=0;orthogonalLoop=1;jettySize=auto;html=1;entryX=1;entryY=0;entryDx=0;entryDy=0;endArrow=open;endFill=0;" edge="1" parent="1" target="0X2S5pAUkGWCGNfLX1CJ-33">
          <mxGeometry relative="1" as="geometry">
            <mxPoint x="850" y="534" as="sourcePoint" />
            <mxPoint x="770" y="495" as="targetPoint" />
          </mxGeometry>
        </mxCell>
        <mxCell id="0X2S5pAUkGWCGNfLX1CJ-35" value="Создание/изменение методических &lt;br&gt;материалов для &lt;br&gt;обучения" style="ellipse;whiteSpace=wrap;html=1;" vertex="1" parent="1">
          <mxGeometry x="605" y="160" width="150" height="90" as="geometry" />
        </mxCell>
        <mxCell id="0X2S5pAUkGWCGNfLX1CJ-36" style="rounded=0;orthogonalLoop=1;jettySize=auto;html=1;entryX=1;entryY=0.5;entryDx=0;entryDy=0;endArrow=open;endFill=0;" edge="1" parent="1" target="0X2S5pAUkGWCGNfLX1CJ-35">
          <mxGeometry relative="1" as="geometry">
            <mxPoint x="840" y="250" as="sourcePoint" />
            <mxPoint x="770" y="495" as="targetPoint" />
          </mxGeometry>
        </mxCell>
        <mxCell id="0X2S5pAUkGWCGNfLX1CJ-37" value="Создание/изменение домашнего&lt;br&gt;задания&lt;br&gt;по курсу" style="ellipse;whiteSpace=wrap;html=1;" vertex="1" parent="1">
          <mxGeometry x="600" y="310" width="140" height="90" as="geometry" />
        </mxCell>
        <mxCell id="0X2S5pAUkGWCGNfLX1CJ-38" value="&amp;lt;&amp;lt;extend&amp;gt;&amp;gt;" style="html=1;verticalAlign=bottom;endArrow=open;dashed=1;endSize=8;curved=0;rounded=0;exitX=0.5;exitY=1;exitDx=0;exitDy=0;endFill=0;entryX=0.5;entryY=0;entryDx=0;entryDy=0;" edge="1" parent="1" source="0X2S5pAUkGWCGNfLX1CJ-35" target="0X2S5pAUkGWCGNfLX1CJ-37">
          <mxGeometry x="0.1351" y="36" relative="1" as="geometry">
            <mxPoint x="427" y="370" as="sourcePoint" />
            <mxPoint x="483" y="390" as="targetPoint" />
            <mxPoint as="offset" />
          </mxGeometry>
        </mxCell>
      </root>
    </mxGraphModel>
  </diagram>
</mxfile>
